# xmcd
#
# Track frame offsets:
#	150
#	25265
#	49754
#	65376
#	86700
#	110475
#	133022
#	179632
#	200158
#	220312
#	246470
#	264997
#	295810
#
# Disc length: 4163 seconds
#
# Revision: 2
# Processed by: cddbd v1.5.2PL0 Copyright (c) Steve Scherf et al.
# Submitted via: audiograbber 1.83.01
#
DISCID=ce10410d
DTITLE=Rolling Thunder - The Never Ending Rehearsal - The Music of bob Dylan
DYEAR=2002
DGENRE=Blues
TTITLE0=Senor (Tales of Yankee Power) 
TTITLE1=Man in a Long Black Coat 
TTITLE2=I'll Be Your Baby Tonight 
TTITLE3=Love Sick 
TTITLE4=Where Are You Tonight (Journey Through Dark Heat) 
TTITLE5=Billy 
TTITLE6=Lily Rosemary and the Jack of Hearts 
TTITLE7=Meet Me in the Morning 
TTITLE8=One More Cup of Coffee 
TTITLE9=Gotta Serve Somebody 
TTITLE10=All Along the Watchtower 
TTITLE11=It's All Over Now Baby Blue 
TTITLE12=Dark Eyes 
EXTD=
EXTT0=
EXTT1=
EXTT2=
EXTT3=
EXTT4=
EXTT5=
EXTT6=
EXTT7=
EXTT8=
EXTT9=
EXTT10=
EXTT11=
EXTT12=
PLAYORDER=
